<?xml version="1.0" encoding="utf-8"?>
<!-- Generator: Adobe Illustrator 24.0.2, SVG Export Plug-In . SVG Version: 6.00 Build 0)  -->
<svg version="1.1" id="圖層_1" xmlns="http://www.w3.org/2000/svg" xmlns:xlink="http://www.w3.org/1999/xlink" x="0px" y="0px"
	 viewBox="0 0 125 125" style="enable-background:new 0 0 125 125;" xml:space="preserve">
<style type="text/css">
	.st0{fill:#F5F5F5;}
	.st1{fill:#505050;}
	.st2{fill:#2D46F0;}
</style>
<g id="圖層_1_1_">
</g>
<path class="st0" d="M74.7,110.4H32.9c-5.1,0-9.2-4.1-9.2-9.2v-89c0-5.1,4.1-9.2,9.2-9.2h41.8c5.1,0,9.2,4.1,9.2,9.2v89
	C83.9,106.3,79.8,110.4,74.7,110.4z"/>
<g>
	<g>
		<path class="st1" d="M41.4,103.6c7.3,0,14.5,0,21.8,0c1,0,2.1,0,3.1,0c1.2,0,1.2-1.9,0-1.9c-7.3,0-14.5,0-21.8,0c-1,0-2.1,0-3.1,0
			C40.1,101.7,40.1,103.6,41.4,103.6L41.4,103.6z"/>
	</g>
	<g>
		<path class="st1" d="M78,111.4H29.6c-3.8,0-6.8-3.1-6.8-6.8V8.8c0-3.8,3.1-6.8,6.8-6.8H78c3.8,0,6.8,3.1,6.8,6.8v95.7
			C84.9,108.3,81.8,111.4,78,111.4z M29.6,3.9c-2.7,0-4.9,2.2-4.9,4.9v95.7c0,2.7,2.2,4.9,4.9,4.9H78c2.7,0,4.9-2.2,4.9-4.9V8.8
			c0-2.7-2.2-4.9-4.9-4.9H29.6z"/>
	</g>
	<g>
		<path class="st1" d="M76.2,95.9H31.4c-2.2,0-3.9-1.8-3.9-3.9V10.6c0-2.2,1.8-3.9,3.9-3.9h44.8c2.2,0,3.9,1.8,3.9,3.9V92
			C80.1,94.1,78.4,95.9,76.2,95.9z M31.4,8.6c-1.1,0-2,0.9-2,2V92c0,1.1,0.9,2,2,2h44.8c1.1,0,2-0.9,2-2V10.6c0-1.1-0.9-2-2-2H31.4z
			"/>
	</g>
</g>
<path class="st2" d="M59.7,72.5c-1.6,1.6-3.2,3.2-4.8,4.8c0-1.5,0.1-50.9,0-52.9c1.6,1.6,3.2,3.2,4.7,4.7c0.9,0.9,2.2-0.5,1.4-1.4
	c-2.1-2.1-4.3-4.3-6.4-6.4c-0.4-0.4-1-0.4-1.4,0c-2.1,2.1-4.3,4.3-6.4,6.4c-0.9,0.9,0.5,2.2,1.4,1.4c1.6-1.6,3.2-3.2,4.8-4.8
	c0,1.5-0.1,51,0,52.9c-1.6-1.6-3.2-3.2-4.7-4.7c-0.9-0.9-2.2,0.5-1.4,1.4c2.1,2.1,4.3,4.3,6.4,6.4c0.4,0.4,1,0.4,1.4,0
	c2.1-2.1,4.3-4.3,6.4-6.4C61.9,73,60.5,71.7,59.7,72.5z"/>
<path class="st0" d="M84,40.4v33.2L80.1,71l-3.3-2.6L65.8,54.7c0,0-1.3-2.6-2.6-3.3c-1.3-0.7-2.6-2-4.6,0c-2,2-1.3,4.6-0.7,6.5
	c0.7,2,7.2,12.4,7.8,14.3c0.7,2,4.6,11.7,4.6,14.3c0,2.6,1.3,11.1,2,15c0.7,3.9,2,7.2,2.6,7.8c0.7,0.7,1.3,1.3,1.3,1.3
	s-3.3,1.3-3.3,3.9c0,2.6,0.7,4.6,1.3,5.2c0.7,0.7,5.9,2.6,7.8,2.6s6.5,0,8.5-0.7c2-0.7,4.6-2,5.2-3.3c0.7-1.3,0.7-4.6,0.7-4.6
	s-1.3-1.3-2-2c-0.7-0.7-1.3-1.3-1.3-1.3s1.3-1.3,2-5.2c0.7-3.9,0.7-11.7,1.3-13.7c0.7-2,3.9-17.6,3.9-17.6s2-6.5-1.3-11.7
	S84,40.4,84,40.4z"/>
<path class="st1" d="M101.8,66.3c-0.7-2.3-2.2-4.4-3.4-6.4c-2.7-4.4-5.5-8.7-8.3-13c-1.8-2.7-3.6-5.4-5.4-8.1
	c-0.5-0.8-1.8-0.5-1.8,0.5c0,4.9,0,9.7,0,14.6c0,4.6,0,9.2,0,13.8c0,1.3,0,2.6,0,3.9c-1.3-0.6-2.6-1.3-3.8-2.1
	c-1.3-0.9-2.1-2.2-3.1-3.4c-1.3-1.6-2.5-3.1-3.8-4.7c-2.6-3.2-5-6.4-7.7-9.5c-1-1.1-2.3-2.2-3.9-2.1c-1.5,0.1-2.8,1-3.5,2.3
	c-1.9,3.2,0.2,7.3,1.7,10.2c1.6,3.2,3.6,6.3,5.3,9.4c1.8,3.4,3.2,7,4.1,10.7c0.9,3.8,1.2,7.6,1.6,11.5c0.5,5.9,1.6,12.2,5.2,16.9
	c-1.5,0.9-3,2.2-2.9,3.9c0,0,0,0.1,0,0.1c0,1.4-0.3,3.1,0.5,4.4c1.3,2.1,4.1,3,6.3,3.5c3.3,0.7,6.8,0.8,10.2,0.2
	c2.4-0.4,5.3-1.1,7-3c1.2-1.4,1-3.2,1-5c0-0.1,0-0.1,0-0.2c0-0.2,0-0.3,0-0.5c-0.1-1.4-1.2-2.4-2.4-3.2c2-3.6,2-8.4,2.2-12.4
	c0.2-3.2,0.7-6.4,1.3-9.6c0.8-4,1.6-8.1,2.6-12.1C101.7,73.4,102.9,69.8,101.8,66.3z M93,119.5c-1,0.5-2.2,0.9-3.3,1.1
	c-3,0.7-6.2,0.7-9.2,0.2c-2-0.3-4.7-0.9-6.1-2.5c-0.2-0.2-0.3-0.5-0.4-0.8c1.2,0.9,2.8,1.4,4.1,1.7c3.3,0.9,6.9,1,10.3,0.5
	c2.2-0.3,4.8-0.9,6.6-2.3c0,0.2-0.1,0.3-0.1,0.5C94.6,118.7,93.8,119.2,93,119.5z M99.6,73.7c-1,3.8-1.9,7.6-2.7,11.4
	c-0.7,3.5-1.6,7-1.9,10.6c-0.5,5.5,0.5,12.9-4.3,16.8c-1,0.8,0.4,2.1,1.4,1.4c0.5-0.4,1-0.9,1.4-1.4c0.8,0.4,1.6,1,1.6,1.9
	c0,0.5-0.4,1-0.8,1.3c-1.5,1.3-3.8,1.8-5.7,2.1c-2.7,0.5-5.6,0.4-8.3,0c-1.9-0.3-4.1-0.8-5.6-2.2c-0.5-0.4-0.9-1-0.6-1.6
	c0.3-0.9,1.3-1.5,2.2-1.9c0.7,0.7,1.4,1.3,2.2,1.9c1,0.7,2-1,1-1.7c-5.4-3.8-6.9-10.7-7.6-16.8c-0.4-3.6-0.6-7.3-1.2-10.9
	c-0.6-3.6-1.7-7.1-3.1-10.4c-1.4-3.2-3.2-6.1-4.9-9.1c-0.9-1.5-1.7-3-2.5-4.5c-0.8-1.5-1.6-3.2-1.8-4.9c-0.2-1.5,0.1-3.3,1.6-4
	c1.5-0.7,2.7,0.7,3.5,1.8c2.4,2.9,4.8,5.9,7.2,8.9c1.4,1.7,2.7,3.4,4.1,5.1c1.1,1.3,2,2.6,3.4,3.6c1.6,1.2,3.5,2.1,5.4,2.8
	c0.6,0.2,1.2-0.4,1.2-0.9c0-4.3,0-8.6,0-12.8c0-4.6,0-9.2,0-13.8c0-1.3,0-2.6,0-4c3.6,5.4,7.2,10.9,10.6,16.4
	c1.1,1.9,2.3,3.7,3.3,5.6c0.7,1.3,1.3,2.6,1.4,4.1C100.5,70.3,100.1,72,99.6,73.7z"/>
</svg>
